;WWWWW ﾀｺ&ｲｶｽｰﾊﾟｰ
;CLEAR999:_MUSIC(1,0,1,1,1,1,1,1):DEFSTRA-Y
;デチューン
;FORZ=1TO5:POKE&HFA2C+Z*16,80:NEXT:POKE&HFA2C,140
;1:140  2:80  3:80  4:80  5:80  6:80

.START1=T075 P15,15 @00 @E1 @D0 Q7 /CH1/*
.START2=T075 P15,15 @00 @E1 @D0 Q7 /CH2/*
.START3=T075 P15,15 @00 @E1 @D0 Q7 /CH3/*
.START4=T075 P15,15 @00 @E1 @D0 Q7 /CH4/*
.START5=T075 P15,15 @00 @E1 @D0 Q7 /CH5/*
.START6=T075 P15,15 @00 @E0 @D0 Q7 /CH6/*

;
;WWWWW MML
;T=T150
RS=R1 R1'
;WWWWW A
A0=Q8@02V23O5L8R8D.C.<B.>C.<B.>C.<B.>C.<B>CD'
A1=L8R16C#32D&D32C.<B.>C.<B.>C.<B.>C.<B>L16CC#DD#C#'
A2=L16V27Q7@06G4.DDG2.<G4>D4G4'
A3=L16F4.AA>E6<A6>E6<A4.>E4D8C8D8'
A4=L16C4.FF>C2&C8C4CCC6<B-6G#12B-12'
A5=L16>C4.<FF>C2&C8C4CCC8<B-8G#8B-8'
A6=V29Q6@11O5 L12AB->C4<AGAB-4G A6F6A6G4C4'
A7=L12AB->C4<AGAB-4>D< A6FG6EF#2'
A8=L12>F#GA4F#EF#G4EF#6D6F#FEFF#L24GG#AB-B>CL12<'
A9=L12F#GAG#GF#EF#GF#FEF#ADEGC#Q8D2'
AA=E2V27@0L32AG#GF#FED#DC#C<BB-AG#GF#'
;WWWWW B
B0=Q8@02V21O5L8R8R12D.C.<B.>C.<B.>C.<B.>C.<B>CD24'
B1=L8R16R12C#32D&D32C.<B.>C.<B.>C.<B.>C.<B>L16CC#DD#24'
B2=L16V25@06R12G4.DDG2.<G4>D4G8&G24'
B3=L16R12F4.AA>E6<A6>E6<A4.>E4D8C8D24'
B4=L16R12C4.FF>C2&C8C4CCC6<B-6G#12'
B5=L16R12>C4.<FF>C2&C8C4CCC8<B-8G#8B-24'
B6=R8Q6@11O5L12AB->C4<AGAB-4GA6F6A6G4C8'
B7=L12R8AB->C4<AGAB-4>D<A6FG6EF#4.'
B8=L12>V27DEF#4DC#DE4C#D6<B6>DC#C#DD#L24EFF#GG#AL12'
B9=L12DEF#FED#C#DED#DC#DF#<B>C#E<AG2'
BA=G2V25@0L32AG#GF#FED#DC#C<BB-AG#GF#'
;WWWWW C
C0=L8R8G.F.E.F.E.F.E.F.EFG'
C1=Q8@02V23O5L8R16G.F.E.F.E.F.E.F.EL16FF#GG#F#'
C2=Q7V27@06L16D4.<GG>D2.<D4G4>D4'
C3=L16C4.FFA6F6A6F4.A4G8F8G8'
C4=L16F4.>CCF2&F8F4FFF6D#6C#12D#12'
C5=L16F4.CCF2&F8F4FFF8D#8C#8D#8'
C6=V27@4O5R1 L12AB->C4<AGAB-4G'
C7=L12A6F6A6G4C4 AB->C4<AGAB-4>D<'
C8=@11O5L12AB>C#4<AGAB4GB6F#6BB-AB-BL24>C#DD#EFG<L12'
C9=L12AB>C#C<BAGABB-AGA>D<F#G>C#<EE2'
CA=C2<V23@0L32AG#GF#FED#DC#C<BB-AG#GF#'
;WWWWW D
D0=Q4@01V25O5L16DEFDADGDFDEDEFGADGDFDEDEFGAFGABB-'
D1=L16AB>C<A>E<A>D<A>C<AB>CDEFGF#FEGF#FEAG#GF#BB-AG#G'
D2=O6@11L8V25AV21AV19AV25B-V21B-V19B-B-VB-AV25AV21AV19B-B-V17B-B-B-'
D3=L8>V25CV21CV19C<V25AV21AV19AAV17ABV25BV21BV19AAV17AAA'
D4=Q7@01V21O6L16C#CC#C<G#8>>C#CC#C<G#8C#CC#C<G#8>>C#CC#C<G#8C#C<G#8>>C#C<B->C'
D7=@12V29O4 L12AB->C4<AGAB-4G A6F6A6G4C4'
D8=Q8@3V29O6L32C#2<B2>D2DEDEDEDEC#DC#DC#DC#D>'
D9=@2V31L12F#GAG#GF#EF#GF#FEF#ADEGC#Q8D2'
DA=E2<V23L32AG#GF#FED#DC#C<BB-AG#GF#'
;WWWWW E
;E0=Q4L16@01V25O6AB>CDE<AB>CD<GAB>CDEFEDC#DE<A>G<AB>C<B>DC<AF#F'
;E1=L16EF#GEAEF#GG#AB-B>CC#DD#DC<B>CDC#CED<B>D#CEC#FD'
;E2=O6@11L8V25D#V21D#V19D#V25D#V21D#V19FFV17FFV25GV21GV19GGV17D#D#D#'
;E3=L8V25EV21EV19EV25GV21GV19DDV17FFV25EV21EV19GGV17DDE'
;E4=Q7@2V29O4L8G#4.G#2&G#G#4.G#2&G#'
;E5=L8B-4.B-2&B-B-4.B-2&B-'
;E7=@3V29O6R1 L12AB->C4<AGAB-4G'
;E8=V23@32O6L16F#<A>DF#A<A>DF#G<G>C#EA<A>C#EF#<B>DF#>D<DF#BL24>C#DC#<B>C#<BABAGAG'
;E9=Q8V31O7@28L16A8A8AAA8A8A32A32AAAAA8AAAAAAAAA8A8A8AA'
;EA=L8GGGGR12V23O7@0L32AG#GF#FED#DC#C<BB-A'
;WWWWW F
F0=Q6@33O3V25L8D4>D.<D.D>D<DR8D>D.<D.D>D<C16C#16Q8'
F2=L8D#4.B-4>D#DD#G4.<B-4>D#D<D#'
F3=L8DD4G#32A..>DC#DL24A8GAGF8EFEL8D<AGFL16'
F4=L16
   C32C#.C#8C#8C#C#C#C#C#8C#8C#8
   C32C#.C#8C#8C#C#C#C#C#8C#8C#8'
F5=L16F32F#.F#8F#8F#F#F#F#F#8F#8FF#L8F#>C#F#<F#>C#F#F<F#'
F6=@11O3Q4V29L8F4RC4R8Q6C16<B16B-B-B-B->CCCC'
F7=L16F4>F8.<C8CCC8DC<BB->DFB->C<GFED8A>DC#EAE'
F8=V25@33O3L8C#32D16.DDD16D16<G#32A16.AAF#GGEEA>C<BG'
F9=>L16C#32D.DDD8DD<G#32A.AAA8AF#L8GGAA>C2'
FA=L8<G>G>C<B>DC<GA'
;WWWWW G
G0=@M1 V31BH8C8SH8C16B16H8BC8SH8C8 H8BC8SH8C16B16H16B16BC8SH8C8'
G1=@M1 BH8C8SH8C16B16H8BC8SH8C8H8BC8SH8C16B16SH32S32S16SC16S16BH32B32B16BC16B16'
G2=@M1 V31B16V19B16V31B16V19B16V15B16V11B16V31S16V19S16V15S16V11S16V7S16V5S16V31S16V19S16V15S16V11S16V7S16V5S16V31B16V19B16V31B16V19B16V31S16V19S16V15S16V11S16V7S16V5S16V31S16V19S16V31B16V19B16V31'
G3=@M1 BH8BC8SBH8BC16B16BH8BC8SBH8BC8
       BH8BC8SBH8BC16B16BH8BC8SBH8BC8'
G4=@M1 BH8BC8SBH8BC16B16BH8BC8SBH8BC8
       BH8BC8BSH8C16B16S32S32S16SB16S16S16S16B16B16'
GA=@M1 SB4CSB4B8CHS16BHS16BHS32BHS32HS16BHS16BHS16'
;800 PLAY#2,T,T,T,T,T,T,T
;805 FOR ZL=0 TO 2
;810 PLAY#2,A0,"",F0,B0,"","",G0
;820 PLAY#2,A1,C1,F0,B1,"","",G0
;830 PLAY#2,A0,C0,F0,B0,D0,E0,G0
;840 PLAY#2,A1,C1,F0,B1,D1,E1,G1
;850 PLAY#2,A2,C2,F2,B2,D2,E2,G2
;860 PLAY#2,A3,C3,F3,B3,D3,E3,G2
;870 PLAY#2,A4,C4,F4,B4,D4,E4,G3
;880 PLAY#2,A5,C5,F5,B5,D4,E5,G4
;890 PLAY#2,A6,C6,F6,B6,"","",G0
;900 PLAY#2,A7,C7,F7,B7,D7,E7,G1
;910 PLAY#2,A8,C8,F8,B8,D8,E8,G3
;920 PLAY#2,A9,C9,F9,B9,D9,E9,G4
;930 PLAY#2,AA,CA,FA,BA,DA,EA,GA
;940 NEXT
CH1=   [2(A0)(A1)]    (A2)(A3)(A4)(A5)(A6)(A7)(A8)(A9)(AA) /CH1/
CH2= (RS)(C1)(C0)(C1) (C2)(C3)(C4)(C5)(C6)(C7)(C8)(C9)(CA) /CH2/
CH3=     [4(F0)]      (F2)(F3)(F4)(F5)(F6)(F7)(F8)(F9)(FA) /CH3/
CH4=   [2(B0)(B1)]    (B2)(B3)(B4)(B5)(B6)(B7)(B8)(B9)(BA) /CH4/
CH5= (RS)(RS)(D0)(D1) (D2)(D3)(D4)(D4)(RS)(D7)(D8)(D9)(DA) /CH5/
CH6=   [3(G0)](G1)    (G2)(G2)(G3)(G4)(G0)(G1)(G3)(G4)(GA) /CH6/
;CH5=[2 (RS)(RS)(E0)(E1) (E2)(E3)(E4)(E4)(RS)(E7)(E8)(E9)(EA) ]'
